<?xml version="1.0" encoding="UTF-8"?>
<svg id="Layer_1" data-name="Layer 1" xmlns="http://www.w3.org/2000/svg" xmlns:xlink="http://www.w3.org/1999/xlink" viewBox="0 0 1605.66 306.99">
  <defs>
    <style>
      .cls-1 {
        fill: url(#Degradado_sin_nombre_27);
      }

      .cls-1, .cls-2, .cls-3, .cls-4, .cls-5, .cls-6 {
        stroke-width: 0px;
      }

      .cls-2 {
        fill: url(#Degradado_sin_nombre_22);
      }

      .cls-3 {
        fill: url(#Degradado_sin_nombre_20);
      }

      .cls-4 {
        fill: url(#Degradado_sin_nombre_33);
      }

      .cls-5 {
        fill: url(#Degradado_sin_nombre_40);
      }

      .cls-6 {
        fill: url(#Degradado_sin_nombre_40-2);
      }

      .cls-7 {
        fill: #fff;
        font-family: Impact, Impact;
        font-size: 229.37px;
      }
    </style>
    <linearGradient id="Degradado_sin_nombre_27" data-name="Degradado sin nombre 27" x1="322.99" y1="700.52" x2="378.63" y2="746.89" gradientTransform="translate(-102.38 -596.42)" gradientUnits="userSpaceOnUse">
      <stop offset="0" stop-color="#ccc"/>
      <stop offset="1" stop-color="#f2f2f2"/>
    </linearGradient>
    <linearGradient id="Degradado_sin_nombre_22" data-name="Degradado sin nombre 22" x1="191.46" y1="609.4" x2="286.25" y2="653.71" gradientTransform="translate(-102.38 -596.42)" gradientUnits="userSpaceOnUse">
      <stop offset="0" stop-color="#ccc"/>
      <stop offset="1" stop-color="#e6e6e6"/>
    </linearGradient>
    <linearGradient id="Degradado_sin_nombre_20" data-name="Degradado sin nombre 20" x1="154.63" y1="671.64" x2="167.51" y2="734.49" gradientTransform="translate(-102.38 -596.42)" gradientUnits="userSpaceOnUse">
      <stop offset="0" stop-color="#e6e6e6"/>
      <stop offset="1" stop-color="#f2f2f2"/>
    </linearGradient>
    <linearGradient id="Degradado_sin_nombre_33" data-name="Degradado sin nombre 33" x1="102.39" y1="789.28" x2="344.36" y2="789.28" gradientTransform="translate(-102.38 -596.42)" gradientUnits="userSpaceOnUse">
      <stop offset="0" stop-color="#ccc"/>
      <stop offset="1" stop-color="#f2f2f2"/>
    </linearGradient>
    <linearGradient id="Degradado_sin_nombre_40" data-name="Degradado sin nombre 40" x1="85.53" y1="86.17" x2="153.62" y2="155.27" gradientUnits="userSpaceOnUse">
      <stop offset="0" stop-color="#ccc"/>
      <stop offset="1" stop-color="#f2f2f2"/>
    </linearGradient>
    <linearGradient id="Degradado_sin_nombre_40-2" data-name="Degradado sin nombre 40" x1="-278.63" y1="498.62" x2="-242.14" y2="498.62" gradientTransform="translate(357.84 -399.76)" xlink:href="#Degradado_sin_nombre_40"/>
  </defs>
  <text class="cls-7" transform="translate(326.5 231.16) scale(1.04 1)"><tspan x="0" y="0">illustracoder</tspan></text>
  <g>
    <g>
      <path class="cls-1" d="M253.05,25.43c1.05,1.05,2.08,2.13,3.06,3.22.98,1.08,1.93,2.19,2.85,3.31.41.49.8.98,1.19,1.49.39.5.77,1,1.15,1.51,11.7,15.61,17.45,34.29,17.21,52.91l.14,68.96.03,12.94v.37s.01,4.17.01,4.17v.11s-.05,52.63-.05,52.63v.07c0,3.77-1.46,7.53-4.33,10.39-5.77,5.79-15.16,5.79-20.95,0-.36-.36-.71-.73-1.02-1.12-.33-.33-.64-.67-.96-1.01-4.27-4.62-8.2-9.25-11.85-13.88-1.21-1.53-2.4-3.05-3.55-4.57-11.81-15.58-20.44-30.94-26.7-45.39-13.99-32.14-17.73-69.69-17.74-84.46-.01-.09-.01-.14-.01-.21-.05-4.34-.34-8.73-.91-13.11-.26-1.97-.57-3.94-.94-5.89-2.95-15.58-9.63-30.65-21.52-42.53-5.67-5.66-11.9-10.34-18.55-14.1-8.25-4.69-17.11-7.91-26.2-9.65C117.99.54,112.48.01,106.98.01h1.8l13.11.04,67.96.17h2.36c18.01.01,36.01,5.65,51.16,16.85,1.01.75,2,1.52,2.99,2.32.08.05.16.14.23.2,1.13.93,2.25,1.88,3.34,2.87,1.05.95,2.11,1.95,3.12,2.97Z"/>
      <path class="cls-2" d="M253.05,25.43c1.05,1.05,2.08,2.13,3.06,3.22.98,1.08,1.93,2.19,2.85,3.31.41.49.8.98,1.19,1.49.39.5.77,1,1.15,1.51,11.35,15.19,17.08,33.27,17.09,51.38v2.35s.24,68.12.24,68.12l.04,12.96v1.8c0-5.44-.51-10.87-1.54-16.25-1.75-9.15-4.99-18.09-9.72-26.38-3.76-6.64-8.45-12.88-14.12-18.53-11.91-11.89-26.98-18.58-42.57-21.5-1.1-.2-2.2-.39-3.3-.56-5.22-.81-10.48-1.22-15.68-1.27h-.2c-12.12,0-39.62-2.49-66.85-11.14-5.95-1.87-11.88-4.03-17.64-6.54-15.15-6.56-31.35-15.72-47.76-28.42-5.36-4.14-10.74-8.68-16.12-13.6-.34-.31-.68-.63-1.01-.96-.38-.31-.76-.66-1.12-1.02-5.79-5.78-5.79-15.17-.03-20.95C43.9,1.57,47.66.11,51.43.11h.07S100.25.03,100.25.03h3.87s.12-.03.12-.03h2.74s1.43,0,1.43,0h.37s13.08.03,13.08.03l68.82.09c18.53-.26,37.1,5.39,52.69,16.96,1.01.74,2,1.52,2.99,2.32.08.05.16.14.23.2,1.13.91,2.23,1.86,3.34,2.87,1.05.95,2.11,1.95,3.12,2.97Z"/>
      <path class="cls-3" d="M25.33,41.14c.36.36.71.74,1.03,1.11.33.33.63.68.95,1.02,2.51,2.74,4.91,5.46,7.21,8.18,2.23,2.65,4.37,5.28,6.41,7.92,12.73,16.4,21.92,32.59,28.49,47.73,2.95,6.76,5.43,13.76,7.53,20.75,7.86,26.18,10.19,52.02,10.24,63.71-.01.09-.02.15-.01.21.01,1.1.05,2.22.08,3.33.19,4.52.63,9.07,1.4,13.58.66,3.96,1.56,7.9,2.72,11.75,3.61,12.07,9.77,23.47,19.18,32.86,5.66,5.66,11.89,10.35,18.54,14.1,5.27,3,10.79,5.39,16.47,7.16,3.89,1.23,7.83,2.18,11.83,2.85,4.75.8,9.55,1.21,14.35,1.2l-1.43.02h-.37s-11.37-.04-11.37-.04l-9-.03-60.68-.16h-2.36c-14.38,0-28.69-3.59-41.63-10.72-.43-.24-.86-.49-1.28-.73-.92-.52-1.83-1.08-2.73-1.64-.45-.28-.89-.56-1.34-.86-1.34-.88-2.69-1.8-3.99-2.76-1.16-.86-2.3-1.74-3.43-2.68-1.12-.92-2.23-1.88-3.31-2.85-1.06-.96-2.13-1.95-3.14-2.97-1.05-1.05-2.07-2.13-3.05-3.21-.98-1.08-1.94-2.2-2.88-3.33-.06-.06-.13-.17-.19-.24-.86-1.04-1.66-2.11-2.48-3.2-.64-.87-1.26-1.75-1.87-2.64-.6-.88-1.18-1.78-1.76-2.69-.57-.9-1.11-1.8-1.63-2.72-.24-.43-.49-.86-.73-1.28C3.61,220.56,0,205.66.19,190.78l-.13-61.55v-9.13s-.04-11.21-.04-11.21l-.02-.38v-1.43s0-2.74,0-2.74v-.11s.01-3.97.01-3.97l.04-48.67v-.06c0-3.78,1.46-7.53,4.33-10.41,4.58-4.59,11.46-5.54,16.97-2.82,1.45.69,2.78,1.63,3.97,2.83Z"/>
      <path class="cls-4" d="M237.64,253.25c1.18,1.17,2.13,2.52,2.83,3.97,2.73,5.54,1.8,12.38-2.8,16.98-2.87,2.87-6.63,4.33-10.4,4.34h-.06s-52.63.09-52.63.09h-.11s-.17.01-.17.01h-4s-.37,0-.37,0h-11.36s-8.99-.03-8.99-.03l-61.55-.07c-14.87.21-29.8-3.4-43.15-10.83-.43-.24-.86-.49-1.28-.73-.92-.52-1.83-1.08-2.73-1.64-.45-.28-.89-.56-1.34-.86-1.35-.88-2.68-1.8-3.99-2.76-1.16-.86-2.3-1.74-3.43-2.68-1.12-.92-2.23-1.88-3.31-2.85-1.06-.96-2.13-1.95-3.14-2.97-1.05-1.05-2.07-2.13-3.05-3.21-.98-1.08-1.94-2.2-2.88-3.33-.06-.06-.13-.17-.19-.24-.86-1.04-1.66-2.11-2.48-3.2-.64-.87-1.26-1.75-1.87-2.64-.6-.88-1.18-1.78-1.76-2.69-.57-.9-1.11-1.8-1.63-2.72-.24-.43-.49-.86-.73-1.28C3.93,220.99.32,206.68.3,192.31v-2.36s-.21-60.68-.21-60.68l-.03-9.15-.04-11.23v-1.8c0,4.73.39,9.47,1.16,14.15.67,4.05,1.65,8.07,2.9,12.01,1.79,5.66,4.19,11.19,7.19,16.47,3.76,6.64,8.46,12.87,14.12,18.53,9.41,9.4,20.81,15.55,32.89,19.15,3.87,1.16,7.8,2.05,11.77,2.71,2.52.42,5.07.74,7.61.97,3.1.31,6.21.46,9.29.49.06,0,.13,0,.23,0,14.8.03,52.34,3.72,84.46,17.69,14.44,6.24,29.81,14.86,45.4,26.64.46.34.92.69,1.38,1.04,2.95,2.27,5.93,4.64,8.88,7.14,2.74,2.31,5.46,4.69,8.2,7.21.34.31.69.62,1.02.95.38.32.75.66,1.11,1.03Z"/>
    </g>
    <path class="cls-5" d="M152.32,149.98c-1.05-1.04-1.55-2.56-1.17-3.99,1.26-4.72-.85-9.04-5.09-11.23-4.71-2.43-10.87-.5-13.28,4.88-.54,1.21-.81,2.55-.79,3.88.09,7.01,6.5,11.11,12.72,9.25,1.48-.44,2.46-.54,3.69.7l49.32,49.55c.95.95-.14,2.5-1.36,1.93-29.18-13.79-59.59-23.8-91.63-29.39-2.51-.44-4.15-2.91-3.48-5.36,3.92-14.41,1.87-27.9-6.41-40.78-1.08-1.68-.85-3.87.56-5.28l27.29-27.29c1.39-1.39,3.57-1.63,5.24-.59,12.91,8.07,26.36,10.39,40.83,6.4,2.46-.68,4.93.97,5.37,3.48,5.58,31.95,15.75,62.5,29.41,91.74.57,1.21-.98,2.3-1.93,1.35l-49.29-49.24Z"/>
    <rect class="cls-6" x="79.2" y="92.75" width="36.49" height="12.22" rx="2.34" ry="2.34" transform="translate(-41.36 97.86) rotate(-45)"/>
  </g>
</svg>