<svg width="200" height="200" viewBox="0 0 200 200" fill="none" xmlns="http://www.w3.org/2000/svg">
<path d="M100.004 0C44.7817 0 0 45.8987 0 102.527C0 147.833 28.6552 186.263 68.3853 199.817C73.3807 200.764 75.2198 197.593 75.2198 194.884C75.2198 192.439 75.1235 184.361 75.0833 175.797C47.2634 181.997 41.3926 163.7 41.3926 163.7C36.847 151.851 30.2855 148.697 30.2855 148.697C21.2103 142.332 30.9682 142.464 30.9682 142.464C41.0071 143.188 46.2996 153.029 46.2996 153.029C55.2223 168.707 69.6944 164.17 75.3965 161.551C76.296 154.923 78.8821 150.402 81.7492 147.841C59.535 145.247 36.1884 136.453 36.1884 97.1663C36.1884 85.9757 40.0916 76.8272 46.4924 69.6468C45.4564 67.0694 42.0351 56.6446 47.4642 42.5226C47.4642 42.5226 55.8648 39.7641 74.9709 53.0297C82.9458 50.757 91.499 49.6207 100.004 49.5795C108.501 49.6207 117.062 50.757 125.053 53.0297C144.143 39.7641 152.528 42.5226 152.528 42.5226C157.973 56.6446 154.544 67.0777 153.508 69.655C159.916 76.8355 163.796 85.9839 163.796 97.1745C163.796 136.552 140.401 145.231 118.13 147.767C121.72 150.945 124.917 157.187 124.917 166.755C124.917 180.474 124.804 191.516 124.804 194.892C124.804 197.618 126.603 200.821 131.671 199.808C171.385 186.238 200 147.816 200 102.527C200 45.8987 155.226 0 100.004 0Z" fill="white"/>
</svg>
