<svg width="200" height="200" viewBox="0 0 200 200" fill="none" xmlns="http://www.w3.org/2000/svg">
<path d="M66.6747 100C66.6747 81.5904 81.5945 66.6626 100.004 66.6626C118.414 66.6626 133.341 81.5904 133.341 100C133.341 118.41 118.414 133.337 100.004 133.337C81.5945 133.337 66.6747 118.41 66.6747 100ZM48.6531 100C48.6531 128.361 71.6429 151.351 100.004 151.351C128.365 151.351 151.355 128.361 151.355 100C151.355 71.6388 128.365 48.6491 100.004 48.6491C71.6429 48.6491 48.6531 71.6388 48.6531 100ZM141.387 46.613C141.386 48.9865 142.089 51.307 143.407 53.281C144.725 55.255 146.598 56.7938 148.791 57.703C150.983 58.6122 153.396 58.8508 155.724 58.3887C158.052 57.9266 160.191 56.7845 161.87 55.1068C163.549 53.4292 164.693 51.2914 165.157 48.9637C165.621 46.636 165.384 44.223 164.477 42.0299C163.569 39.8367 162.032 37.9619 160.059 36.6425C158.086 35.3231 155.766 34.6183 153.393 34.6174H153.388C150.206 34.6188 147.156 35.883 144.905 38.1322C142.655 40.3813 141.39 43.4316 141.387 46.613ZM59.6024 181.401C49.8524 180.957 44.553 179.333 41.0312 177.961C36.3623 176.143 33.0309 173.978 29.5284 170.48C26.0258 166.983 23.8578 163.655 22.0481 158.986C20.6752 155.465 19.0512 150.164 18.6079 140.414C18.1231 129.873 18.0263 126.707 18.0263 100.001C18.0263 73.2949 18.1311 70.1372 18.6079 59.5872C19.052 49.8372 20.688 44.5466 22.0481 41.016C23.8658 36.347 26.0306 33.0157 29.5284 29.5132C33.0261 26.0106 36.3543 23.8425 41.0312 22.0329C44.5514 20.66 49.8524 19.0359 59.6024 18.5927C70.1436 18.1079 73.3101 18.0111 100.004 18.0111C126.698 18.0111 129.868 18.1159 140.418 18.5927C150.168 19.0367 155.458 20.6728 158.989 22.0329C163.658 23.8425 166.989 26.0154 170.492 29.5132C173.994 33.0109 176.154 36.347 177.972 41.016C179.345 44.5362 180.969 49.8372 181.412 59.5872C181.897 70.1372 181.994 73.2949 181.994 100.001C181.994 126.707 181.897 129.864 181.412 140.414C180.968 150.164 179.336 155.464 177.972 158.986C176.154 163.655 173.989 166.986 170.492 170.48C166.994 173.975 163.658 176.143 158.989 177.961C155.469 179.334 150.168 180.958 140.418 181.401C129.876 181.886 126.71 181.982 100.004 181.982C73.2981 181.982 70.1404 181.886 59.6024 181.401ZM58.7744 0.601596C48.1283 1.08642 40.8536 2.77448 34.5006 5.24658C27.9211 7.79948 22.3513 11.2244 16.7855 16.7814C11.2196 22.3385 7.80351 27.9171 5.25061 34.4966C2.77851 40.8536 1.09044 48.1243 0.605624 58.7703C0.112805 69.4332 0 72.8421 0 100C0 127.158 0.112805 130.567 0.605624 141.23C1.09044 151.876 2.77851 159.146 5.25061 165.503C7.80351 172.079 11.2204 177.664 16.7855 183.219C22.3505 188.773 27.9211 192.193 34.5006 194.753C40.8656 197.225 48.1283 198.914 58.7744 199.398C69.4428 199.883 72.8461 200.004 100.004 200.004C127.162 200.004 130.571 199.891 141.234 199.398C151.88 198.914 159.15 197.225 165.507 194.753C172.083 192.193 177.657 188.776 183.223 183.219C188.788 177.661 192.197 172.079 194.757 165.503C197.23 159.146 198.926 151.876 199.402 141.23C199.887 130.559 200 127.158 200 100C200 72.8421 199.887 69.4332 199.402 58.7703C198.918 48.1235 197.23 40.8496 194.757 34.4966C192.197 27.9211 188.78 22.3473 183.223 16.7814C177.666 11.2156 172.083 7.79948 165.515 5.24658C159.15 2.77448 151.88 1.07842 141.242 0.601596C130.579 0.116777 127.17 -0.00402832 100.012 -0.00402832C72.8541 -0.00402832 69.4428 0.108776 58.7744 0.601596Z" fill="white"/>
<path d="M66.6747 100C66.6747 81.5904 81.5945 66.6626 100.004 66.6626C118.414 66.6626 133.341 81.5904 133.341 100C133.341 118.41 118.414 133.337 100.004 133.337C81.5945 133.337 66.6747 118.41 66.6747 100ZM48.6531 100C48.6531 128.361 71.6429 151.351 100.004 151.351C128.365 151.351 151.355 128.361 151.355 100C151.355 71.6388 128.365 48.6491 100.004 48.6491C71.6429 48.6491 48.6531 71.6388 48.6531 100ZM141.387 46.613C141.386 48.9865 142.089 51.307 143.407 53.281C144.725 55.255 146.598 56.7938 148.791 57.703C150.983 58.6122 153.396 58.8508 155.724 58.3887C158.052 57.9266 160.191 56.7845 161.87 55.1068C163.549 53.4292 164.693 51.2914 165.157 48.9637C165.621 46.636 165.384 44.223 164.477 42.0299C163.569 39.8367 162.032 37.9619 160.059 36.6425C158.086 35.3231 155.766 34.6183 153.393 34.6174H153.388C150.206 34.6188 147.156 35.883 144.905 38.1322C142.655 40.3813 141.39 43.4316 141.387 46.613ZM59.6024 181.401C49.8524 180.957 44.553 179.333 41.0312 177.961C36.3623 176.143 33.0309 173.978 29.5284 170.48C26.0258 166.983 23.8578 163.655 22.0481 158.986C20.6752 155.465 19.0512 150.164 18.6079 140.414C18.1231 129.873 18.0263 126.707 18.0263 100.001C18.0263 73.2949 18.1311 70.1372 18.6079 59.5872C19.052 49.8372 20.688 44.5466 22.0481 41.016C23.8658 36.347 26.0306 33.0157 29.5284 29.5132C33.0261 26.0106 36.3543 23.8425 41.0312 22.0329C44.5514 20.66 49.8524 19.0359 59.6024 18.5927C70.1436 18.1079 73.3101 18.0111 100.004 18.0111C126.698 18.0111 129.868 18.1159 140.418 18.5927C150.168 19.0367 155.458 20.6728 158.989 22.0329C163.658 23.8425 166.989 26.0154 170.492 29.5132C173.994 33.0109 176.154 36.347 177.972 41.016C179.345 44.5362 180.969 49.8372 181.412 59.5872C181.897 70.1372 181.994 73.2949 181.994 100.001C181.994 126.707 181.897 129.864 181.412 140.414C180.968 150.164 179.336 155.464 177.972 158.986C176.154 163.655 173.989 166.986 170.492 170.48C166.994 173.975 163.658 176.143 158.989 177.961C155.469 179.334 150.168 180.958 140.418 181.401C129.876 181.886 126.71 181.982 100.004 181.982C73.2981 181.982 70.1404 181.886 59.6024 181.401ZM58.7744 0.601596C48.1283 1.08642 40.8536 2.77448 34.5006 5.24658C27.9211 7.79948 22.3513 11.2244 16.7855 16.7814C11.2196 22.3385 7.80351 27.9171 5.25061 34.4966C2.77851 40.8536 1.09044 48.1243 0.605624 58.7703C0.112805 69.4332 0 72.8421 0 100C0 127.158 0.112805 130.567 0.605624 141.23C1.09044 151.876 2.77851 159.146 5.25061 165.503C7.80351 172.079 11.2204 177.664 16.7855 183.219C22.3505 188.773 27.9211 192.193 34.5006 194.753C40.8656 197.225 48.1283 198.914 58.7744 199.398C69.4428 199.883 72.8461 200.004 100.004 200.004C127.162 200.004 130.571 199.891 141.234 199.398C151.88 198.914 159.15 197.225 165.507 194.753C172.083 192.193 177.657 188.776 183.223 183.219C188.788 177.661 192.197 172.079 194.757 165.503C197.23 159.146 198.926 151.876 199.402 141.23C199.887 130.559 200 127.158 200 100C200 72.8421 199.887 69.4332 199.402 58.7703C198.918 48.1235 197.23 40.8496 194.757 34.4966C192.197 27.9211 188.78 22.3473 183.223 16.7814C177.666 11.2156 172.083 7.79948 165.515 5.24658C159.15 2.77448 151.88 1.07842 141.242 0.601596C130.579 0.116777 127.17 -0.00402832 100.012 -0.00402832C72.8541 -0.00402832 69.4428 0.108776 58.7744 0.601596Z" fill="white"/>
</svg>
