<svg width="200" height="200" viewBox="0 0 200 200" fill="none" xmlns="http://www.w3.org/2000/svg">
<path d="M181.673 0H18.3268C8.33333 0 0 8.33333 0 18.3268V181.673C0 191.667 8.33333 200 18.3268 200H181.673C191.667 200 200 191.667 200 181.673V18.3268C200 8.33333 191.667 0 181.673 0ZM58.3333 166.667H25V75H58.3333V166.667ZM41.6667 64.1602C31.6732 64.1602 25 57.487 25 49.1536C25 40.0065 31.6732 33.3333 41.6667 33.3333C51.6602 33.3333 58.3333 40.0065 58.3333 48.3398C58.3333 57.487 51.6602 64.1602 41.6667 64.1602ZM175 166.667H141.667V116.667C141.667 103.32 132.487 100 130.013 100C127.507 100 116.667 101.66 116.667 116.667C116.667 118.327 116.667 166.667 116.667 166.667H83.3333V75H116.667V88.3464C121.68 80.8268 130.013 75 145.833 75C161.654 75 175 87.5 175 116.667V166.667Z" fill="white"/>
</svg>
